<svg width="136" height="28" viewBox="0 0 136 28" fill="none" xmlns="http://www.w3.org/2000/svg">
<path d="M0 9.33545V14.2599C1.69536 14.2588 3.37431 14.5894 4.94079 15.233C6.50727 15.8766 7.93052 16.8204 9.12912 18.0106C10.3274 19.2002 11.2777 20.6127 11.9257 22.1672C12.5737 23.7217 12.9067 25.3877 12.9056 27.0699H17.8633C17.8588 22.3684 15.9755 17.8607 12.6265 14.5359C9.27759 11.2111 4.7366 9.34082 0 9.33545H0Z" fill="white"/>
<path d="M24.7944 0.470215H16.9375C20.9121 2.97036 24.28 6.31277 26.7994 10.2576V2.45891C26.799 1.93135 26.5876 1.42552 26.2116 1.05261C25.8357 0.679693 25.3259 0.470215 24.7944 0.470215V0.470215Z" fill="white"/>
<path d="M4.93657 0.470215H0V4.90401C5.92089 4.91013 11.5975 7.24743 15.7843 11.4031C19.9711 15.5587 22.326 21.1932 22.3323 27.0702H26.7985V22.1702C25.7887 16.7848 23.1596 11.8291 19.2572 7.95566C15.3548 4.0822 10.3622 1.47253 4.93657 0.470215V0.470215Z" fill="white"/>
<path d="M38.9494 3.39844H35.8027V19.1414H38.9494V3.39844Z" fill="white"/>
<path d="M50.5199 10.2191C49.996 9.74643 49.3829 9.38168 48.7159 9.146C47.2832 8.64665 45.7219 8.64665 44.2892 9.146C43.622 9.38151 43.0086 9.74628 42.4846 10.2191C41.9707 10.6894 41.5601 11.2599 41.2786 11.8949C40.9877 12.5877 40.8379 13.3308 40.8379 14.0813C40.8379 14.8319 40.9877 15.575 41.2786 16.2678C41.5591 16.9046 41.9697 17.4767 42.4846 17.9478C43.0076 18.421 43.6207 18.7856 44.2878 19.0202C45.7203 19.5204 47.282 19.5204 48.7145 19.0202C49.3818 18.7856 49.9951 18.421 50.5185 17.9478C51.0331 17.4765 51.4437 16.9045 51.7244 16.2678C52.0153 15.575 52.1651 14.8319 52.1651 14.0813C52.1651 13.3308 52.0153 12.5877 51.7244 11.8949C51.4432 11.2601 51.0331 10.6896 50.5199 10.2191ZM48.3591 15.9353C47.8495 16.3909 47.188 16.643 46.5022 16.643C45.8164 16.643 45.1549 16.3909 44.6454 15.9353C44.2171 15.4105 43.9834 14.7557 43.9834 14.0803C43.9834 13.4049 44.2171 12.7501 44.6454 12.2253C45.1549 11.7697 45.8164 11.5176 46.5022 11.5176C47.188 11.5176 47.8495 11.7697 48.3591 12.2253C48.7874 12.7501 49.021 13.4049 49.021 14.0803C49.021 14.7557 48.7874 15.4105 48.3591 15.9353V15.9353Z" fill="white"/>
<path d="M61.8182 10.3538H61.7787C61.6332 10.1511 61.4642 9.96592 61.2752 9.80224C61.0462 9.60119 60.7927 9.42952 60.5206 9.29124C59.8328 8.94094 59.0693 8.76242 58.2963 8.77114C57.6189 8.75936 56.949 8.91322 56.3457 9.21914C55.7835 9.50809 55.2871 9.9086 54.8873 10.3958C54.4796 10.898 54.1668 11.4693 53.9641 12.0821C53.7486 12.7135 53.6388 13.3756 53.639 14.0421C53.6311 14.7576 53.7519 15.4688 53.9959 16.1421C54.2169 16.7566 54.5615 17.3201 55.0086 17.7983C55.4541 18.2664 55.9947 18.635 56.5946 18.8798C57.2469 19.1437 57.946 19.2747 58.6504 19.2648C59.1713 19.2559 59.6864 19.1537 60.1708 18.9631C60.714 18.7586 61.1847 18.4 61.5241 17.932H61.5665V18.912C61.5783 19.2389 61.524 19.5648 61.4069 19.8705C61.2897 20.1763 61.1121 20.4556 60.8845 20.6921C60.5957 20.9458 60.258 21.1386 59.8919 21.2589C59.5259 21.3792 59.139 21.4246 58.7547 21.3921C58.1455 21.3989 57.5416 21.2782 56.9825 21.0379C56.4262 20.7912 55.9071 20.4689 55.4402 20.0803L53.699 22.6598C54.4107 23.2288 55.2426 23.6311 56.1327 23.8365C57.0135 24.0376 57.9144 24.1388 58.8182 24.1382C60.8041 24.1382 62.283 23.6419 63.2548 22.6493C64.2266 21.6567 64.7127 20.2026 64.7132 18.2869V9.02104H61.8218L61.8182 10.3538ZM61.6292 14.9661C61.5051 15.2625 61.3232 15.5315 61.094 15.7578C60.8606 15.9887 60.587 16.1755 60.2865 16.3094C59.9744 16.447 59.6367 16.5181 59.2953 16.5181C58.9538 16.5181 58.6162 16.447 58.3041 16.3094C58.0076 16.1736 57.7375 15.9869 57.5065 15.7578C57.2763 15.5296 57.0937 15.2585 56.9691 14.9602C56.8445 14.6618 56.7803 14.342 56.7803 14.019C56.7803 13.6961 56.8445 13.3763 56.9691 13.0779C57.0937 12.7795 57.2763 12.5085 57.5065 12.2802C57.7377 12.0512 58.0077 11.8642 58.3041 11.7279C58.6163 11.5908 58.9539 11.52 59.2953 11.52C59.6367 11.52 59.9743 11.5908 60.2865 11.7279C60.5869 11.8623 60.8605 12.0494 61.094 12.2802C61.4401 12.6256 61.6757 13.0649 61.7709 13.5428C61.8662 14.0207 61.8169 14.516 61.6292 14.9661V14.9661Z" fill="white"/>
<path d="M76.5336 10.2191C76.0097 9.74643 75.3965 9.38168 74.7296 9.146C73.2969 8.64665 71.7356 8.64665 70.3029 9.146C69.6357 9.38151 69.0222 9.74628 68.4982 10.2191C67.9843 10.6894 67.5738 11.2599 67.2923 11.8949C67.0014 12.5877 66.8516 13.3308 66.8516 14.0813C66.8516 14.8319 67.0014 15.575 67.2923 16.2678C67.5727 16.9046 67.9834 17.4767 68.4982 17.9478C69.0217 18.4211 69.6353 18.7857 70.3029 19.0202C71.7354 19.5204 73.2971 19.5204 74.7296 19.0202C75.3969 18.7856 76.0102 18.421 76.5336 17.9478C77.0484 17.4767 77.4591 16.9046 77.7395 16.2678C78.0304 15.575 78.1802 14.8319 78.1802 14.0813C78.1802 13.3308 78.0304 12.5877 77.7395 11.8949C77.458 11.2599 77.0474 10.6894 76.5336 10.2191V10.2191ZM74.3727 15.9353C73.8632 16.3909 73.2017 16.643 72.5159 16.643C71.8301 16.643 71.1686 16.3909 70.659 15.9353C70.2308 15.4105 69.9971 14.7557 69.9971 14.0803C69.9971 13.4049 70.2308 12.7501 70.659 12.2253C71.1686 11.7697 71.8301 11.5176 72.5159 11.5176C73.2017 11.5176 73.8632 11.7697 74.3727 12.2253C74.801 12.7501 75.0347 13.4049 75.0347 14.0803C75.0347 14.7557 74.801 15.4105 74.3727 15.9353Z" fill="white"/>
<path d="M82.3536 9.09131H80.666V19.1412H82.3536V9.09131Z" fill="white"/>
<path d="M81.5099 3.93821C81.3463 3.93512 81.1838 3.96597 81.0328 4.02876C80.8819 4.09156 80.7458 4.18493 80.6333 4.30291C80.4617 4.47463 80.3452 4.69291 80.2984 4.93027C80.2516 5.16762 80.2766 5.41341 80.3703 5.63666C80.464 5.85992 80.6222 6.05064 80.8249 6.1848C81.0277 6.31896 81.2659 6.39055 81.5095 6.39055C81.7532 6.39055 81.9914 6.31896 82.1941 6.1848C82.3969 6.05064 82.5551 5.85992 82.6488 5.63666C82.7425 5.41341 82.7675 5.16762 82.7207 4.93027C82.6739 4.69291 82.5574 4.47463 82.3858 4.30291C82.2734 4.18488 82.1375 4.09147 81.9867 4.02866C81.8358 3.96586 81.6734 3.93505 81.5099 3.93821V3.93821Z" fill="white"/>
<path d="M94.8377 10.3399C94.3629 9.85883 93.7919 9.48183 93.1613 9.23323C92.4693 8.96248 91.7309 8.82768 90.9871 8.83633C90.2865 8.82834 89.5936 8.98295 88.9639 9.28783C88.3436 9.59401 87.7945 10.0253 87.3517 10.5541H87.3066V9.09113H85.6211V24.0375H87.3066V17.3595H87.3496C87.7078 17.972 88.23 18.474 88.8581 18.8099C89.5873 19.2152 90.4126 19.4192 91.2481 19.4007C91.9321 19.405 92.6098 19.2697 93.2389 19.0031C93.8464 18.7474 94.3948 18.371 94.8504 17.8971C95.313 17.4129 95.6768 16.8443 95.9216 16.2227C96.4407 14.8668 96.4407 13.3689 95.9216 12.0129C95.6746 11.39 95.3063 10.8214 94.8377 10.3399V10.3399ZM94.2425 15.5899C94.0852 16.0275 93.8391 16.4284 93.5194 16.7678C93.1998 17.1072 92.8134 17.378 92.3842 17.5632C91.4351 17.949 90.3713 17.949 89.4223 17.5632C88.9924 17.378 88.6055 17.107 88.2855 16.7672C87.9654 16.4274 87.7192 16.026 87.5619 15.5878C87.2306 14.6354 87.2306 13.6003 87.5619 12.6478C87.7192 12.2097 87.9654 11.8082 88.2855 11.4684C88.6055 11.1286 88.9924 10.8577 89.4223 10.6724C90.3713 10.2866 91.4351 10.2866 92.3842 10.6724C92.814 10.8577 93.201 11.1286 93.521 11.4684C93.841 11.8082 94.0873 12.2097 94.2446 12.6478C94.5758 13.6003 94.5758 14.6354 94.2446 15.5878L94.2425 15.5899Z" fill="white"/>
<path d="M104.811 14.12C104.491 13.882 104.134 13.6971 103.753 13.5726C103.336 13.4328 102.91 13.3215 102.477 13.2394C102.153 13.1844 101.831 13.1129 101.514 13.0252C101.232 12.949 100.957 12.8483 100.692 12.7242C100.48 12.6288 100.289 12.4938 100.128 12.3266C99.9912 12.1771 99.9177 11.9811 99.9226 11.7792C99.9193 11.5614 99.9836 11.3478 100.107 11.1674C100.228 10.9892 100.386 10.8391 100.571 10.7271C100.769 10.6083 100.985 10.5214 101.21 10.4695C101.441 10.4128 101.678 10.3839 101.916 10.3834C102.368 10.3694 102.815 10.4851 103.203 10.7166C103.553 10.9353 103.846 11.2332 104.057 11.586L105.464 10.6627C105.152 10.0524 104.646 9.56149 104.024 9.26621C103.398 8.97737 102.714 8.83078 102.023 8.83711C101.555 8.836 101.089 8.90105 100.639 9.03031C100.208 9.15239 99.7987 9.34139 99.4269 9.59031C99.0713 9.82858 98.7753 10.1444 98.5615 10.5136C98.3402 10.9068 98.2282 11.3513 98.2372 11.8016C98.2195 12.2424 98.3203 12.6799 98.5291 13.0693C98.7196 13.395 98.9855 13.6709 99.3049 13.8743C99.6574 14.095 100.04 14.2649 100.44 14.379C100.873 14.5078 101.328 14.6224 101.803 14.7227C102.078 14.7801 102.345 14.8445 102.604 14.9159C102.847 14.9806 103.08 15.0782 103.296 15.2057C103.487 15.318 103.653 15.4679 103.783 15.646C103.913 15.8433 103.977 16.0762 103.967 16.3117C103.975 16.5592 103.907 16.8032 103.772 17.0117C103.638 17.2093 103.461 17.3744 103.253 17.4947C103.029 17.6274 102.784 17.7221 102.528 17.7747C102.269 17.8313 102.004 17.8601 101.739 17.8608C101.213 17.881 100.692 17.7544 100.235 17.4954C99.8148 17.2299 99.445 16.893 99.1427 16.5L97.8027 17.5311C98.2175 18.1705 98.8063 18.6802 99.5009 19.0011C100.213 19.2816 100.974 19.4168 101.74 19.3987C102.239 19.3991 102.736 19.3416 103.221 19.2272C103.683 19.1213 104.122 18.936 104.519 18.6798C104.899 18.4298 105.213 18.0939 105.436 17.6998C105.678 17.2525 105.798 16.75 105.783 16.2424C105.797 15.806 105.708 15.3725 105.524 14.9761C105.356 14.6401 105.112 14.3471 104.811 14.12V14.12Z" fill="white"/>
<path d="M116.97 16.7577V9.09131H115.282V13.9913C115.287 14.5196 115.226 15.0464 115.098 15.5593C114.99 15.999 114.798 16.4142 114.534 16.7829C114.283 17.1257 113.947 17.3991 113.56 17.5774C113.114 17.7738 112.631 17.8695 112.143 17.8574C111.814 17.8839 111.482 17.8314 111.177 17.7043C110.872 17.5773 110.603 17.3794 110.391 17.1273C109.985 16.5418 109.787 15.8395 109.827 15.1302V9.09131H108.139V15.2975C108.134 15.8601 108.21 16.4205 108.366 16.9614C108.502 17.441 108.743 17.8849 109.071 18.2613C109.4 18.6293 109.811 18.9168 110.27 19.1013C110.818 19.3135 111.402 19.4158 111.99 19.4023C112.386 19.4055 112.779 19.351 113.159 19.2406C113.501 19.1416 113.828 18.9973 114.132 18.8115C114.408 18.6428 114.659 18.4369 114.878 18.1997C115.075 17.9887 115.239 17.7497 115.365 17.4906H115.408C115.408 17.7776 115.416 18.0576 115.43 18.3306C115.445 18.6036 115.452 18.8757 115.451 19.1468H117.053C117.053 18.8169 117.038 18.4517 117.009 18.0513C116.98 17.6509 116.967 17.2197 116.97 16.7577Z" fill="white"/>
<path d="M135.209 11.293C135.096 10.8067 134.874 10.352 134.559 9.96299C134.241 9.58658 133.832 9.29736 133.369 9.12298C132.787 8.91442 132.171 8.81612 131.552 8.83319C130.88 8.80406 130.216 8.98022 129.648 9.33789C129.122 9.71257 128.68 10.1917 128.35 10.7449C128.264 10.5727 128.152 10.3758 128.015 10.1541C127.862 9.91474 127.668 9.70387 127.441 9.53108C127.163 9.32133 126.854 9.156 126.524 9.04109C126.082 8.89341 125.617 8.82422 125.15 8.83668C124.755 8.83345 124.361 8.88794 123.982 8.99839C123.64 9.09739 123.312 9.24172 123.008 9.42749C122.732 9.59645 122.481 9.80232 122.262 10.0393C122.065 10.2503 121.901 10.4893 121.775 10.7484H121.732C121.732 10.4614 121.725 10.1828 121.711 9.90839C121.697 9.63399 121.689 9.36449 121.689 9.09219H120.088C120.088 9.42212 120.102 9.78728 120.131 10.1877C120.16 10.5881 120.174 11.0177 120.174 11.4764V19.1421H121.863V14.2463C121.858 13.7178 121.919 13.1907 122.047 12.6776C122.155 12.2377 122.346 11.8224 122.611 11.454C122.862 11.1111 123.197 10.8376 123.584 10.6595C124.03 10.4629 124.514 10.3673 125.002 10.3795C125.291 10.355 125.581 10.4069 125.843 10.5298C126.105 10.6528 126.33 10.8424 126.494 11.0795C126.856 11.816 127.014 12.6354 126.949 13.4525V19.1435H128.633V13.3433C128.628 12.93 128.698 12.5191 128.839 12.1302C128.964 11.7854 129.156 11.4682 129.403 11.1964C129.637 10.9419 129.92 10.7373 130.236 10.5951C130.555 10.4516 130.902 10.3782 131.253 10.3802C131.67 10.3652 132.084 10.4459 132.465 10.6161C132.764 10.7598 133.024 10.9739 133.221 11.2398C133.411 11.503 133.544 11.8027 133.611 12.1197C133.683 12.4514 133.72 12.7898 133.719 13.1291V19.1421H135.403V13.043C135.409 12.454 135.344 11.8664 135.209 11.293Z" fill="white"/>
</svg>
